<svg width="28" height="28" viewBox="0 0 28 28" fill="none" xmlns="http://www.w3.org/2000/svg">
<g id="veilix-logo-new 2">
<path id="Vector" d="M12.8959 1.55452C12.3126 1.89202 11.4167 2.40869 10.9084 2.70452C10.4001 2.99619 9.95422 3.25869 9.91672 3.28369C9.85839 3.32952 9.85422 3.35035 9.91672 3.52119C9.95422 3.62535 9.99589 3.84202 10.0084 4.00452L10.0334 4.30035L11.9917 5.44202C13.0667 6.07119 13.9667 6.57952 13.9917 6.57119C14.0167 6.56285 14.8001 6.10869 15.7376 5.55869C16.6709 5.00869 17.4626 4.55035 17.5001 4.53785C17.5501 4.51702 17.5584 4.45452 17.5376 4.17119C17.5084 3.81285 17.5459 3.60035 17.6959 3.27952C17.7417 3.18369 17.7709 3.09202 17.7626 3.07952C17.7501 3.07119 17.3584 2.83785 16.8917 2.56702C16.4251 2.30035 15.6001 1.82119 15.0584 1.50869C14.5167 1.19619 14.0459 0.937854 14.0167 0.937854C13.9834 0.937854 13.4792 1.21702 12.8959 1.55452Z" fill="#112278"/>
<path id="Vector_2" d="M20.5709 4.94577C20.5042 5.04577 20.3959 5.17077 20.3375 5.22493L20.2292 5.32493V7.86243V10.3958L20.4084 10.5041C20.5042 10.5624 21.4292 11.0666 22.4667 11.6249L24.35 12.6416L24.5542 12.5624C24.6667 12.5166 24.8584 12.4708 24.975 12.4541L25.1875 12.4249V9.89577V7.36243L24.9084 7.19993C24.75 7.10827 23.8209 6.57077 22.8334 5.99993C21.85 5.43327 20.9625 4.92077 20.8667 4.8666L20.6959 4.7666L20.5709 4.94577Z" fill="#112278"/>
<path id="Vector_3" d="M4.90429 6.16588C3.82096 6.79088 2.90429 7.32839 2.87096 7.35755C2.82096 7.39922 2.81262 7.78255 2.81262 9.87422V12.3451L3.03762 12.3701C3.15846 12.3867 3.37096 12.4534 3.51262 12.5201L3.76262 12.6367L4.36679 12.2992C4.69596 12.1117 5.57929 11.6117 6.32929 11.1867L7.68762 10.4159V8.02005V5.62422L7.55429 5.56589C7.47929 5.53255 7.30846 5.39505 7.17512 5.26172C7.04179 5.12839 6.91679 5.02005 6.90429 5.02422C6.88762 5.02422 5.98762 5.53672 4.90429 6.16588Z" fill="#112278"/>
<path id="Vector_4" d="M9.55838 5.25297C9.39171 5.43214 9.10421 5.61131 8.85838 5.68631L8.62504 5.76131L8.60421 8.35714L8.58338 10.953L8.06254 11.2488C7.77504 11.4155 6.82088 11.9571 5.94588 12.453C4.50004 13.2738 4.35004 13.3696 4.37088 13.453C4.46671 13.7696 4.48754 14.0321 4.43754 14.2988C4.39588 14.5571 4.39588 14.5863 4.46671 14.6363C4.50838 14.6696 4.90838 14.9113 5.35421 15.1738C5.80004 15.4405 6.62504 15.928 7.18338 16.2613C7.98754 16.7446 8.20838 16.8571 8.26671 16.8238C8.30421 16.803 8.89588 16.4571 9.58338 16.0613C11.8375 14.7613 12.9542 14.1155 13.2209 13.9613L13.4792 13.8071V10.5905V7.36964L13.2625 7.24464C13.1417 7.17381 12.3209 6.69464 11.4375 6.17797C10.5542 5.66547 9.79171 5.21964 9.74588 5.19464C9.67088 5.15714 9.64171 5.16547 9.55838 5.25297Z" fill="#112278"/>
<path id="Vector_5" d="M17.2874 5.73718C16.8541 5.99134 16.0374 6.47051 15.4708 6.80384L14.4374 7.40384V10.6205V13.833L14.7416 14.0038C15.0124 14.1538 15.7749 14.5955 18.7749 16.3288C19.3166 16.6413 19.7833 16.8955 19.8083 16.8955C19.8333 16.8955 20.6999 16.4038 21.7333 15.8038C23.5374 14.758 23.6083 14.708 23.5874 14.608C23.5708 14.5497 23.5499 14.358 23.5374 14.1872C23.5166 13.933 23.5291 13.8247 23.5999 13.6163C23.6499 13.4747 23.6874 13.3413 23.6874 13.3205C23.6874 13.2997 23.4666 13.1663 23.1999 13.0205C22.9291 12.8747 22.6333 12.7163 22.5416 12.6663C22.4499 12.6163 21.8708 12.2997 21.2499 11.9663C20.6333 11.633 19.9583 11.2663 19.7499 11.1538L19.3749 10.9497L19.3624 8.32051L19.3541 5.68718H19.1458C18.8874 5.68718 18.4833 5.55384 18.2499 5.39551L18.0791 5.27884L17.2874 5.73718Z" fill="#112278"/>
<path id="Vector_6" d="M13.2041 15.0543C12.3416 15.5585 10.0541 16.8793 9.22073 17.3543L8.60406 17.7085L8.61656 19.9085L8.6249 22.1085L8.8749 22.196C9.15406 22.2876 9.2999 22.3793 9.5499 22.6168L9.72073 22.7793L9.94573 22.6585C10.1541 22.546 13.0041 20.9293 13.6791 20.5418L13.9874 20.3668L14.6791 20.7626C17.5416 22.3918 17.9499 22.6168 17.9999 22.5793C18.4457 22.246 18.7957 22.1043 19.1749 22.1043H19.3541V19.9251V17.746L18.2416 17.1043C17.6249 16.7501 16.7957 16.271 16.3957 16.0418C15.9957 15.8085 15.2874 15.4001 14.8249 15.1335C14.3624 14.8668 13.9666 14.646 13.9457 14.646C13.9291 14.646 13.5957 14.8293 13.2041 15.0543Z" fill="#112278"/>
<path id="Vector_7" d="M3.78762 15.3582C3.73762 15.4457 3.25846 15.6415 3.03762 15.6707L2.81262 15.6957V18.1457C2.81262 20.054 2.82512 20.604 2.86679 20.6374C2.89179 20.6582 3.40429 20.9582 4.00012 21.304C4.59596 21.6457 5.49179 22.1624 5.98762 22.4499L6.89179 22.9707L6.97929 22.8332C7.07929 22.6707 7.31262 22.454 7.53346 22.3207L7.68762 22.2207V19.9124V17.604L7.59596 17.5499C7.54179 17.5165 7.23762 17.3332 6.91679 17.1457C6.59596 16.954 5.80846 16.4874 5.16679 16.104C3.75012 15.2582 3.82512 15.2999 3.78762 15.3582Z" fill="#112278"/>
<path id="Vector_8" d="M23.5 15.7869C23.1792 15.9785 22.3125 16.4827 21.575 16.9119L20.2292 17.6952V20.0702V22.4452L20.4084 22.641C20.55 22.7994 20.6625 22.9785 20.7542 23.1785C20.7584 23.1869 21.2542 22.9077 21.8584 22.5577C22.4625 22.2077 23.4542 21.6369 24.0625 21.2869L25.1667 20.6494L25.1792 18.2119L25.1875 15.7702H25.0625C24.9 15.7702 24.4542 15.6202 24.3084 15.516C24.2459 15.4744 24.1709 15.4369 24.1375 15.441C24.1084 15.441 23.8209 15.5994 23.5 15.7869Z" fill="#112278"/>
<path id="Vector_9" d="M12.2082 22.399C11.2457 22.949 10.3582 23.4532 10.2415 23.5199C10.0248 23.6407 10.0207 23.649 10.0207 23.8324C10.0207 24.0157 9.88732 24.4907 9.80816 24.5865C9.77899 24.6199 9.82066 24.6657 9.94566 24.7365C10.0457 24.7907 10.9915 25.3365 12.0498 25.949C13.1082 26.5615 13.9915 27.0615 14.0165 27.0615C14.054 27.0615 17.7957 24.9199 17.8623 24.8574C17.879 24.8449 17.8373 24.749 17.7707 24.6449C17.6123 24.4032 17.5082 23.9949 17.529 23.6824L17.5415 23.4407L15.9165 22.5115C15.0248 22.0032 14.2165 21.5449 14.1248 21.4949L13.9582 21.4032L12.2082 22.399Z" fill="#112278"/>
</g>
</svg>
